{"title":"The Voyage of the Dawn Treader 2010 DVDrip R5 English Klam","uid":6124307,"size":1683970083,"categoryP":"video","categoryS":"movies","magnet":"?xt=urn:btih:969a10a7b8fe5b2d7fd57bc7f10f95e112d10151&amp;dn=The+Voyage+of+the+Dawn+Treader+2010+DVDrip+R5+English+Klam&amp;tr=udp%3A%2F%2Ftracker.openbittorrent.com%3A80&amp;tr=udp%3A%2F%2Fopen.demonii.com%3A1337&amp;tr=udp%3A%2F%2Ftracker.coppersurfer.tk%3A6969&amp;tr=udp%3A%2F%2Fexodus.desync.com%3A6969","seeders":0,"leechers":0,"uploader":"Klambake","files":-1,"time":1295875416,"description":"With: Ben Barnes, Skandar Keynes en Georgie Henley\n\nLucy and Edmund Pevensie return to Narnia with their cousin Eustace where they meet up with Prince Caspian for a trip across the sea aboard the royal ship The Dawn Treader. Along the way they encounter dragons, dwarves, merfolk, and a band of lost warriors before reaching the edge of the world. \n\nGeneral:\n\nComplete name                    : Narnia\\The Voyage of the Dawn Treader 2010.avi\nFormat                           : AVI\nFormat/Info                      : Audio Video Interleave\nFile size                        : 1.57 GiB\nDuration                         : 1h 48mn\nOverall bit rate                 : 2 076 Kbps\n\nVideo:\n\nFormat                           : MPEG-4 Visual\nFormat profile                   : Simple@L3\nFormat settings, BVOP            : No\nFormat settings, QPel            : No\nFormat settings, GMC             : No warppoints\nFormat settings, Matrix          : Default (H.263)\nCodec ID                         : XVID\nCodec ID/Hint                    : XviD\nDuration                         : 1h 48mn\nBit rate                         : 1 873 Kbps\nWidth                            : 720 pixels\nHeight                           : 400 pixels\nDisplay aspect ratio             : 16:9\nFrame rate                       : 25.000 fps\nColor space                      : YUV\nChroma subsampling               : 4:2:0\nBit depth                        : 8 bits\nScan type                        : Progressive\nBits/(Pixel*Frame)               : 0.260\nStream size                      : 1.41 GiB (90%)\nWriting library                  : XviD 1.1.2 (UTC 2006-11-01)\n\nAudio:\n\nFormat                           : AC-3\nFormat/Info                      : Audio Coding 3\nMode extension                   : CM (complete main)\nCodec ID                         : 2000\nDuration                         : 1h 48mn\nBit rate mode                    : Constant\nBit rate                         : 192 Kbps\nChannel(s)                       : 2 channels\nChannel positions                : Front: L R\nSampling rate                    : 48.0 KHz\nBit depth                        : 16 bits\nStream size                      : 148 MiB (9%)\nAlignment                        : Aligned on interleaves\nInterleave, duration             : 32 ms (0.80 video frame)\nInterleave, preload duration     : 1280 ms\n","torrent":{"xt":"urn:btih:969a10a7b8fe5b2d7fd57bc7f10f95e112d10151","amp;dn":"The+Voyage+of+the+Dawn+Treader+2010+DVDrip+R5+English+Klam","amp;tr":["udp%3A%2F%2Ftracker.openbittorrent.com%3A80","udp%3A%2F%2Fopen.demonii.com%3A1337","udp%3A%2F%2Ftracker.coppersurfer.tk%3A6969","udp%3A%2F%2Fexodus.desync.com%3A6969"],"infoHash":"969a10a7b8fe5b2d7fd57bc7f10f95e112d10151","infoHashBuffer":{"type":"Buffer","data":[150,154,16,167,184,254,91,45,127,213,123,199,241,15,149,225,18,209,1,81]},"announce":[],"urlList":[]}}